<svg width="24" height="24" viewBox="0 0 24 24" fill="none" xmlns="http://www.w3.org/2000/svg">
<path d="M12 2.16221C8.79587 2.16221 8.41637 2.1744 7.15102 2.23213C5.98103 2.28553 5.34564 2.48102 4.92274 2.64531C4.36266 2.863 3.96287 3.12308 3.54297 3.54297C3.12308 3.96287 2.863 4.36266 2.64536 4.92274C2.48102 5.34564 2.28553 5.98103 2.23213 7.15097C2.1744 8.41637 2.16221 8.79587 2.16221 12C2.16221 15.2042 2.1744 15.5837 2.23213 16.849C2.28553 18.019 2.48102 18.6544 2.64536 19.0773C2.863 19.6374 3.12308 20.0372 3.54297 20.4571C3.96287 20.877 4.36266 21.137 4.92274 21.3547C5.34564 21.519 5.98103 21.7145 7.15102 21.7679C8.41618 21.8256 8.79568 21.8378 12 21.8378C15.2044 21.8378 15.5839 21.8256 16.849 21.7679C18.019 21.7145 18.6544 21.519 19.0773 21.3547C19.6374 21.137 20.0372 20.877 20.4571 20.4571C20.877 20.0372 21.137 19.6374 21.3547 19.0773C21.519 18.6544 21.7145 18.019 21.7679 16.8491C21.8256 15.5837 21.8378 15.2042 21.8378 12C21.8378 8.79587 21.8256 8.41637 21.7679 7.15102C21.7145 5.98103 21.519 5.34564 21.3547 4.92274C21.137 4.36266 20.877 3.96287 20.4571 3.54297C20.0372 3.12308 19.6374 2.863 19.0773 2.64531C18.6544 2.48102 18.019 2.28553 16.8491 2.23213C15.5837 2.1744 15.2042 2.16221 12 2.16221ZM12 0C15.2591 0 15.6677 0.0138139 16.9476 0.0722133C18.2249 0.130517 19.0972 0.333343 19.8605 0.630008C20.6496 0.936676 21.3188 1.347 21.9859 2.01411C22.6531 2.68123 23.0634 3.35044 23.37 4.13954C23.6667 4.90288 23.8695 5.77516 23.9278 7.05246C23.9862 8.33234 24 8.741 24 12C24 15.2591 23.9862 15.6677 23.9278 16.9476C23.8695 18.2249 23.6667 19.0972 23.37 19.8605C23.0634 20.6496 22.6531 21.3188 21.9859 21.9859C21.3188 22.6531 20.6496 23.0634 19.8605 23.37C19.0972 23.6667 18.2249 23.8695 16.9476 23.9278C15.6677 23.9862 15.2591 24 12 24C8.741 24 8.33234 23.9862 7.05246 23.9278C5.77516 23.8695 4.90288 23.6667 4.13954 23.37C3.35044 23.0634 2.68123 22.6531 2.01411 21.9859C1.347 21.3188 0.936677 20.6496 0.630009 19.8605C0.333344 19.0972 0.130518 18.2249 0.0722136 16.9476C0.0138142 15.6677 0 15.2591 0 12C0 8.741 0.0138142 8.33234 0.0722136 7.05246C0.130518 5.77516 0.333344 4.90288 0.630009 4.13954C0.936677 3.35044 1.347 2.68123 2.01411 2.01411C2.68123 1.347 3.35044 0.936676 4.13954 0.630008C4.90288 0.333343 5.77516 0.130517 7.05246 0.0722133C8.33234 0.0138139 8.741 0 12 0ZM12 5.83784C15.4033 5.83784 18.1622 8.59676 18.1622 12C18.1622 15.4033 15.4033 18.1622 12 18.1622C8.59676 18.1622 5.83784 15.4033 5.83784 12C5.83784 8.59676 8.59676 5.83784 12 5.83784ZM12 16C14.2091 16 16 14.2091 16 12C16 9.7909 14.2091 8 12 8C9.7909 8 8 9.7909 8 12C8 14.2091 9.7909 16 12 16ZM4.15441 5.59438C4.15441 6.38968 4.79909 7.03441 5.59438 7.03441C6.38968 7.03441 7.03441 6.38968 7.03441 5.59438C7.03441 4.79909 6.38968 4.15441 5.59438 4.15441C4.79909 4.15441 4.15441 4.79909 4.15441 5.59438Z" fill="#B7D0F7"/>
</svg>
