<svg width="25" height="25" viewBox="0 0 25 25" fill="none" xmlns="http://www.w3.org/2000/svg">
<g clip-path="url(#clip0_80_34)">
<path d="M5.72844 7.76954L0.910581 7.7275C0.696756 7.72563 0.521986 7.89746 0.520121 8.1112L0.385049 23.5889C0.383183 23.8027 0.554929 23.9775 0.768753 23.9794L5.58661 24.0214C5.80043 24.0233 5.9752 23.8515 5.97707 23.6377L6.11214 8.16C6.114 7.94626 5.94226 7.77141 5.72844 7.76954Z" fill="#B7D0F7"/>
<path d="M3.38841 0.0541725C1.63539 0.0388742 0.196796 1.45104 0.181515 3.20213C0.166226 4.95398 1.57995 6.39159 3.33297 6.40688C5.08459 6.42217 6.52204 5.00937 6.53732 3.25759C6.55268 1.50651 5.14003 0.0694587 3.38841 0.0541725Z" fill="#B7D0F7"/>
<path d="M17.9863 7.4918C16.0513 7.47491 14.6136 8.29427 13.7378 9.23187L13.7465 8.22662C13.7484 8.01288 13.5767 7.83803 13.3628 7.83616L8.7489 7.7959C8.53507 7.79403 8.3603 7.96585 8.35844 8.1796L8.22337 23.6573C8.2215 23.8711 8.39325 24.0459 8.60707 24.0478L13.4144 24.0897C13.6282 24.0916 13.803 23.9198 13.8049 23.706L13.8717 16.0481C13.8942 13.4676 14.6039 12.4684 16.4028 12.4841C18.3619 12.5012 18.5035 14.1142 18.4851 16.2212L18.4194 23.7464C18.4176 23.9602 18.5893 24.135 18.8031 24.1368L23.6122 24.1788C23.8261 24.1807 24.0008 24.0089 24.0027 23.7951L24.0768 15.3053C24.1103 11.4682 23.4128 7.53916 17.9863 7.4918Z" fill="#B7D0F7"/>
</g>
<defs>
<clipPath id="clip0_80_34">
<rect width="24" height="24" fill="white" transform="translate(0.209473) rotate(0.5)"/>
</clipPath>
</defs>
</svg>
