<svg width="136.4199951171875px" height="124.439990234375px" xmlns="http://www.w3.org/2000/svg" viewBox="181.79000244140624 12.780004882812499 136.4199951171875 124.439990234375" style="background: rgba(0, 0, 0, 0) none repeat scroll 0% 0%;" preserveAspectRatio="xMidYMid"><defs><filter id="editing-extrude-glow"><feFlood flood-color="#62adaa" result="flood-1"></feFlood><feMorphology operator="erode" radius="1" in="SourceAlpha" result="erode"></feMorphology><feComposite operator="in" in="flood-1" in2="erode" result="comp1"></feComposite><feConvolveMatrix order="3,3" divisor="1" in="comp1" result="convolve" kernelMatrix="0 0 0 1 1 1 0 0 0"></feConvolveMatrix><feOffset dx="-3" dy="0" in="convolve" result="extrude"></feOffset><feComposite operator="in" in="flood-1" in2="extrude" result="comp-extrude"></feComposite><feFlood flood-color="#000000" result="flood-2"></feFlood><feComposite operator="in" in="flood-2" in2="SourceAlpha" result="comp2"></feComposite><feMorphology operator="dilate" radius="1" in="comp2" result="dilate"></feMorphology><feOffset dx="-4.5" dy="0" in="dilate" result="offset"></feOffset><feGaussianBlur in="offset" stdDeviation="5.8" result="blur"></feGaussianBlur><feComponentTransfer in="blur" result="shadow"><feFuncA type="linear" slope="0.8" intercept="-0.2"></feFuncA></feComponentTransfer><feMerge><feMergeNode in="shadow"></feMergeNode><feMergeNode in="comp-extrude"></feMergeNode><feMergeNode in="SourceGraphic"></feMergeNode></feMerge></filter></defs><g filter="url(#editing-extrude-glow)"><g transform="translate(212.70323371887207, 97.33499908447266)"><path d="M29.18 1.28L29.18 1.28L29.18 1.28Q20.99 1.28 20.22-10.37L20.22-10.37L9.22-10.37L9.22-10.37Q7.94-7.42 7.04-4.86L7.04-4.86L5.38 0L-3.58 0L16.58-42.24L30.34-42.24L33.02-11.14L33.02-11.14Q33.66-4.42 36.22-2.43L36.22-2.43L36.22-2.43Q34.37 1.28 29.18 1.28ZM14.72-23.17L11.20-15.04L20.03-15.04L19.26-31.49L19.26-33.22L14.72-23.17ZM43.33 0L47.04-18.82L47.04-18.82Q45.18-36.16 38.66-39.87L38.66-39.87L38.66-39.87Q40-41.54 42.18-42.46L42.18-42.46L42.18-42.46Q44.35-43.39 46.98-43.39L46.98-43.39L46.98-43.39Q49.60-43.39 51.58-42.46L51.58-42.46L51.58-42.46Q53.57-41.54 54.85-39.55L54.85-39.55L54.85-39.55Q57.28-35.78 57.28-26.75L57.28-26.75L57.28-22.14L57.28-22.14Q61.12-33.41 64.96-38.27L64.96-38.27L64.96-38.27Q68.86-43.26 73.73-43.26L73.73-43.26L73.73-43.26Q75.65-43.26 76.93-42.27L76.93-42.27L76.93-42.27Q78.21-41.28 78.85-39.81L78.85-39.81L78.85-39.81Q73.92-37.63 69.18-31.36L69.18-31.36L69.18-31.36Q64.45-25.09 61.38-16.32L61.38-16.32L57.60 0L43.33 0Z" fill="#62adaa"></path></g></g><style>text {
  font-size: 64px;
  font-family: Arial Black;
  dominant-baseline: central;
  text-anchor: middle;
}</style></svg>